<?xml version="1.0" encoding="UTF-8"?>
<svg id="Layer_2" data-name="Layer 2" xmlns="http://www.w3.org/2000/svg" viewBox="0 0 437.75 178.91">
  <defs>
    <style>
      .cls-1 {
        fill: #4b4ba0;
      }

      .cls-2 {
        fill: #b07dc9;
      }
    </style>
  </defs>
  <g id="Layer_1-2" data-name="Layer 1">
    <g>
      <g>
        <path class="cls-1" d="M1.93,53c-.58-1.55-1.16-6.58-1.16-10.45C.77,20.12,17.6,0,47.78,0s46.62,18.76,46.62,41.2c0,16.25-8.7,29.6-24.76,39.07l-23.79,14.12c-3.68,2.32-6.77,4.84-8.51,8.51h58.03v25.53H0c0-23.02,6.58-41.98,29.6-55.32l20.5-11.99c9.87-5.8,13.73-11.03,13.73-19.34s-5.61-14.89-16.83-14.89c-11.8,0-17.6,8.12-17.6,18.57,0,2.52.39,5.22,1.16,7.74l-28.63-.19Z"/>
        <path class="cls-1" d="M133.86,86.85c.58,9.67,7.93,18.76,20.31,18.76,10.25,0,18.76-6.77,18.76-18.18,0-12.57-9.48-18.57-19.54-18.57-8.51,0-14.51,4.26-17.6,8.12-.58-.19-26.69-8.51-27.27-8.9L122.64,2.9h72.93v25.53h-51.84l-5.03,23.6c4.84-4.26,14.12-6.77,21.28-6.77,25.73,0,43.33,14.89,43.33,41.98,0,23.41-17.8,44.3-49.13,44.3-27.85,0-47-19.15-48.55-38.88l28.24-5.8Z"/>
        <path class="cls-1" d="M225.74,21.47c8.32-12.57,22.25-21.47,42.56-21.47s34.43,8.9,42.75,21.47c8.71,13.15,11.03,28.82,11.03,44.3s-2.32,31.14-11.03,44.3c-8.32,12.38-22.25,21.47-42.75,21.47s-34.24-9.09-42.56-21.47c-8.7-13.15-11.03-28.82-11.03-44.3s2.32-31.14,11.03-44.3ZM249.92,93.04c3.48,6.96,9.09,11.61,18.38,11.61s14.89-4.64,18.38-11.61c3.68-7.35,4.84-17.22,4.84-27.27s-1.16-19.92-4.84-27.27c-3.48-6.96-8.9-11.61-18.38-11.61s-14.89,4.64-18.38,11.61c-3.48,7.35-4.64,17.22-4.64,27.27s1.16,19.92,4.64,27.27Z"/>
        <path class="cls-1" d="M376.43,58.8V21.08h24.76v37.72h36.56v23.99h-36.56v37.72h-24.76v-37.72h-36.75v-23.99h36.75Z"/>
      </g>
      <g>
        <path class="cls-2" d="M129.14,156.46h-4.83l-1.06,2.87h-2.05l4.45-11.42h2.24l4.45,11.42h-2.11l-1.08-2.87ZM124.99,154.67h3.48l-1.74-4.67-1.74,4.67Z"/>
        <path class="cls-2" d="M138.99,154.81h-1.42v4.51h-1.95v-11.42h4.38c2.21,0,3.58,1.53,3.58,3.46,0,1.63-.98,2.87-2.58,3.25l2.58,4.71h-2.19l-2.4-4.51ZM139.65,153.11c1.19,0,1.97-.69,1.97-1.74s-.77-1.76-1.97-1.76h-2.08v3.5h2.08Z"/>
        <path class="cls-2" d="M151.89,149.72v9.6h-1.93v-9.6h-3.71v-1.82h9.36v1.82h-3.72Z"/>
        <path class="cls-2" d="M158.97,159.33v-11.42h1.97v11.42h-1.97Z"/>
        <path class="cls-2" d="M171.22,151.12c-.11-.71-.71-1.76-2.24-1.76-1.16,0-1.97.77-1.97,1.64,0,.72.45,1.27,1.34,1.47l1.64.34c2.01.4,3.09,1.68,3.09,3.29,0,1.77-1.43,3.46-4.04,3.46-2.9,0-4.24-1.87-4.42-3.51l1.8-.52c.11,1.19.97,2.29,2.61,2.29,1.37,0,2.08-.69,2.08-1.58,0-.74-.55-1.34-1.53-1.55l-1.61-.34c-1.74-.35-2.9-1.5-2.9-3.21,0-1.92,1.76-3.5,3.88-3.5,2.69,0,3.74,1.64,4,2.92l-1.74.55Z"/>
        <path class="cls-2" d="M181.29,149.72v9.6h-1.93v-9.6h-3.71v-1.82h9.36v1.82h-3.72Z"/>
        <path class="cls-2" d="M194.14,151.12c-.11-.71-.71-1.76-2.24-1.76-1.16,0-1.97.77-1.97,1.64,0,.72.45,1.27,1.34,1.47l1.64.34c2.01.4,3.09,1.68,3.09,3.29,0,1.77-1.43,3.46-4.04,3.46-2.9,0-4.24-1.87-4.42-3.51l1.8-.52c.11,1.19.97,2.29,2.61,2.29,1.37,0,2.08-.69,2.08-1.58,0-.74-.55-1.34-1.53-1.55l-1.61-.34c-1.74-.35-2.9-1.5-2.9-3.21,0-1.92,1.76-3.5,3.88-3.5,2.69,0,3.74,1.64,4,2.92l-1.74.55Z"/>
        <path class="cls-2" d="M205.39,159.33v-11.42h7.06v1.8h-5.12v3.03h4.64v1.76h-4.64v3.03h5.12v1.8h-7.06Z"/>
        <path class="cls-2" d="M227.2,159.33v-8.41l-3.56,8.41h-1.68l-3.53-8.38v8.38h-1.88v-11.42h2.58l3.71,8.72,3.66-8.72h2.63v11.42h-1.92Z"/>
        <path class="cls-2" d="M235.57,154.86v4.46h-1.93v-11.42h4.24c2.19,0,3.64,1.48,3.64,3.48s-1.45,3.48-3.64,3.48h-2.3ZM237.58,153.15c1.22,0,1.97-.68,1.97-1.76s-.74-1.79-1.97-1.79h-2.01v3.54h2.01Z"/>
        <path class="cls-2" d="M245.08,159.33v-11.42h1.93v9.59h5.24v1.84h-7.17Z"/>
        <path class="cls-2" d="M260.46,147.66c3,0,5.82,2.21,5.82,5.95s-2.82,5.96-5.82,5.96-5.8-2.21-5.8-5.96,2.8-5.95,5.8-5.95ZM260.46,157.73c1.93,0,3.83-1.37,3.83-4.12s-1.9-4.12-3.83-4.12-3.82,1.37-3.82,4.12,1.9,4.12,3.82,4.12Z"/>
        <path class="cls-2" d="M268.12,147.9h2.29l2.74,4.79,2.76-4.79h2.17l-4.03,6.59v4.83h-1.93v-4.83l-4-6.59Z"/>
        <path class="cls-2" d="M281.38,159.33v-11.42h7.06v1.8h-5.12v3.03h4.64v1.76h-4.64v3.03h5.12v1.8h-7.06Z"/>
        <path class="cls-2" d="M292.54,159.33v-11.42h4.04c3.11,0,5.56,2.06,5.56,5.74s-2.48,5.69-5.58,5.69h-4.03ZM296.5,157.55c1.98,0,3.63-1.27,3.63-3.92s-1.63-3.96-3.61-3.96h-2.05v7.88h2.03Z"/>
      </g>
      <g>
        <path class="cls-2" d="M129.14,175.8h-4.83l-1.06,2.87h-2.05l4.45-11.42h2.24l4.45,11.42h-2.11l-1.08-2.87ZM124.99,174.02h3.48l-1.74-4.67-1.74,4.67Z"/>
        <path class="cls-2" d="M143.2,178.67l-5.64-8.65v8.65h-1.93v-11.42h2.47l5.19,8.1v-8.1h1.93v11.42h-2.01Z"/>
        <path class="cls-2" d="M157.29,178.67l-5.64-8.65v8.65h-1.93v-11.42h2.47l5.19,8.1v-8.1h1.93v11.42h-2.01Z"/>
        <path class="cls-2" d="M163.69,174.69v-7.44h1.92v7.33c0,1.61.89,2.5,2.34,2.5s2.34-.89,2.34-2.5v-7.33h1.93v7.44c0,2.76-1.87,4.22-4.27,4.22s-4.25-1.47-4.25-4.22Z"/>
        <path class="cls-2" d="M182.87,175.8h-4.83l-1.06,2.87h-2.05l4.45-11.42h2.24l4.45,11.42h-2.11l-1.08-2.87ZM178.71,174.02h3.48l-1.74-4.67-1.74,4.67Z"/>
        <path class="cls-2" d="M189.37,178.67v-11.42h1.93v9.59h5.24v1.84h-7.17Z"/>
        <path class="cls-2" d="M200.09,178.67v-11.42h1.93v9.59h5.24v1.84h-7.17Z"/>
        <path class="cls-2" d="M208.49,167.25h2.29l2.74,4.79,2.76-4.79h2.17l-4.03,6.59v4.83h-1.93v-4.83l-4-6.59Z"/>
      </g>
      <rect class="cls-2" x="78.94" y="136.35" width="66.64" height="1.61" transform="translate(-64 118.57) rotate(-44.68)"/>
    </g>
  </g>
</svg>