<?xml version="1.0" encoding="UTF-8"?>
<svg id="Layer_2" data-name="Layer 2" xmlns="http://www.w3.org/2000/svg" xmlns:xlink="http://www.w3.org/1999/xlink" viewBox="0 0 314.13 74.34">
  <defs>
    <style>
      .cls-1 {
        fill: #fff;
      }

      .cls-2 {
        fill: none;
      }

      .cls-3 {
        clip-path: url(#clippath);
      }
    </style>
    <clipPath id="clippath">
      <rect class="cls-2" y="0" width="314.13" height="74.34"/>
    </clipPath>
  </defs>
  <g id="Layer_1-2" data-name="Layer 1">
    <g>
      <polygon class="cls-1" points="94.81 0 59.03 42.02 68.21 8.61 59.93 0 24.02 42.02 33.2 8.61 24.79 0 0 25.69 7.32 33.12 18.97 21.18 8.61 58.9 17.02 67.52 34.8 46.73 52.57 25.94 43.62 58.9 52.04 67.52 87.73 25.76 78.62 58.9 87.03 67.51 111.92 41.82 104.6 34.32 92.84 46.36 103.21 8.61 94.81 0"/>
      <g class="cls-3">
        <path class="cls-1" d="M131.95,53.53v-7.99h4.43c2.69,0,4.33,1.56,4.33,4.04s-1.63,3.96-4.33,3.96h-4.43ZM137.02,57.38c4.83,0,8.02-3.3,8.02-7.85s-3.19-7.85-8.02-7.85h-9.33v25.75h4.26v-10.06h5.07ZM151.82,57.05c.07-2.25,1.31-4,3.58-4,2.59,0,3.55,1.74,3.55,3.92v10.46h4.12v-11.19c0-3.89-2.06-7.01-6.31-7.01-1.81,0-3.76.65-4.93,2.22v-10.32h-4.12v26.3h4.12v-10.39ZM171.43,49.75h-4.08v17.69h4.08v-17.69ZM166.72,43.54c0,1.52,1.21,2.72,2.66,2.72s2.69-1.2,2.69-2.72-1.21-2.76-2.69-2.76-2.66,1.23-2.66,2.76M180.16,41.14h-4.12v26.3h4.12v-26.3ZM183.64,62.65c0,2.8,2.24,5.34,5.86,5.34,2.8,0,4.51-1.45,5.32-2.8,0,1.42.14,2.14.18,2.25h3.83c-.03-.18-.21-1.23-.21-2.83v-8.79c0-3.52-2.02-6.61-7.34-6.61-4.26,0-6.95,2.72-7.27,5.78l3.76.87c.18-1.78,1.39-3.19,3.55-3.19s3.26,1.2,3.26,2.69c0,.62-.28,1.13-1.28,1.27l-4.43.69c-2.94.43-5.22,2.18-5.22,5.34M190.27,64.68c-1.63,0-2.52-1.09-2.52-2.29,0-1.45,1.03-2.18,2.31-2.4l4.51-.69v.8c0,3.45-1.99,4.58-4.29,4.58M205.6,58.54c0-3.38,1.99-5.52,4.68-5.52s4.54,2.11,4.54,5.48-1.88,5.67-4.58,5.67-4.65-2.25-4.65-5.63M218.8,41.14h-4.01v10.68c-.53-1.13-2.06-2.54-5.07-2.54-4.86,0-8.23,4.18-8.23,9.26,0,5.34,3.33,9.34,8.3,9.34,2.45,0,4.26-1.24,5.07-2.73,0,.73.11,1.89.17,2.29h3.94c-.04-.29-.18-1.63-.18-3.23v-23.07ZM226.36,56.65c.14-1.89,1.63-3.92,4.22-3.92,2.84,0,4.19,1.85,4.26,3.92h-8.48ZM235.3,61.27c-.57,1.74-1.85,3.09-4.33,3.09s-4.61-1.92-4.72-4.61h12.63c.04-.07.11-.65.11-1.35,0-5.59-3.12-9.19-8.45-9.19-4.36,0-8.41,3.7-8.41,9.3,0,6,4.15,9.48,8.84,9.48,4.15,0,6.88-2.51,7.8-5.59l-3.48-1.13ZM246.33,41.14h-4.12v26.3h4.12v-26.3ZM255.02,74.34v-8.9c.89,1.35,2.77,2.43,5.25,2.43,4.97,0,8.12-4,8.12-9.3s-2.87-9.22-7.98-9.22c-2.66,0-4.65,1.27-5.5,2.8v-2.4h-3.97v24.59h4.08ZM264.28,58.58c0,3.38-1.91,5.56-4.65,5.56s-4.65-2.18-4.65-5.56,1.95-5.48,4.65-5.48,4.65,2.18,4.65,5.48M275.78,57.05c.07-2.25,1.31-4,3.58-4,2.59,0,3.55,1.74,3.55,3.92v10.46h4.12v-11.19c0-3.89-2.06-7.01-6.31-7.01-1.81,0-3.76.65-4.93,2.22v-10.32h-4.12v26.3h4.12v-10.39ZM295.4,49.75h-4.08v17.69h4.08v-17.69ZM290.68,43.54c0,1.52,1.21,2.72,2.66,2.72s2.69-1.2,2.69-2.72-1.21-2.76-2.69-2.76-2.66,1.23-2.66,2.76M298.95,62.65c0,2.8,2.23,5.34,5.85,5.34,2.8,0,4.51-1.45,5.32-2.8,0,1.42.14,2.14.18,2.25h3.83c-.04-.18-.21-1.23-.21-2.83v-8.79c0-3.52-2.02-6.61-7.34-6.61-4.26,0-6.95,2.72-7.27,5.78l3.76.87c.17-1.78,1.38-3.19,3.55-3.19s3.26,1.2,3.26,2.69c0,.62-.29,1.13-1.28,1.27l-4.43.69c-2.95.43-5.22,2.18-5.22,5.34M305.58,64.68c-1.63,0-2.52-1.09-2.52-2.29,0-1.45,1.03-2.18,2.3-2.4l4.51-.69v.8c0,3.45-1.99,4.58-4.29,4.58"/>
        <path class="cls-1" d="M155.36,34.52V8.77h-5.78l-8.05,19.65-8.16-19.65h-5.68v25.75h4.15V15.63l7.77,18.89h3.69l7.84-18.96v18.96h4.22ZM171.58,32.56c0,.73.07,1.56.14,1.96h3.94c-.07-.65-.17-1.78-.17-3.23v-14.46h-4.12v10.46c0,2.33-1.24,3.96-3.62,3.96s-3.48-1.85-3.48-4.03v-10.39h-4.12v11.15c0,3.92,2.41,7.04,6.53,7.04,2.02,0,4.04-.87,4.9-2.47M190.2,16.72c-.18-.04-.6-.11-1.1-.11-2.27,0-4.19,1.13-5,3.05v-2.83h-4.01v17.69h4.12v-8.43c0-3.3,1.45-5.19,4.65-5.19.42,0,.89.04,1.35.11v-4.29ZM191.91,29.73c0,2.8,2.23,5.34,5.85,5.34,2.8,0,4.51-1.45,5.32-2.8,0,1.42.14,2.14.18,2.25h3.83c-.04-.18-.21-1.23-.21-2.83v-8.79c0-3.52-2.02-6.61-7.34-6.61-4.26,0-6.95,2.73-7.27,5.78l3.76.87c.18-1.78,1.38-3.19,3.55-3.19,2.27,0,3.27,1.2,3.27,2.69,0,.62-.28,1.13-1.28,1.27l-4.44.69c-2.95.43-5.22,2.18-5.22,5.34M198.54,31.76c-1.63,0-2.52-1.09-2.52-2.29,0-1.45,1.03-2.18,2.3-2.4l4.51-.69v.8c0,3.45-1.99,4.57-4.3,4.57M215.25,8.22h-4.12v26.3h4.12V8.22ZM245.51,34.52h4.65l-9.79-25.75h-4.93l-9.79,25.75h4.51l2.34-6.47h10.64l2.38,6.47ZM237.81,13.49l3.83,10.53h-7.66l3.83-10.53ZM262.47,16.72c-.18-.04-.6-.11-1.1-.11-2.27,0-4.18,1.13-5,3.05v-2.83h-4.01v17.69h4.12v-8.43c0-3.3,1.45-5.19,4.65-5.19.43,0,.89.04,1.35.11v-4.29ZM271.88,11.42h-3.73v2.65c0,1.56-.82,2.76-2.66,2.76h-.89v3.74h3.19v8.9c0,3.3,1.99,5.27,5.18,5.27,1.49,0,2.27-.29,2.52-.4v-3.48c-.18.03-.85.14-1.42.14-1.52,0-2.2-.65-2.2-2.22v-8.21h3.58v-3.74h-3.58v-5.41ZM277.73,29.73c.21,2,2.13,5.34,7.13,5.34,4.4,0,6.53-2.98,6.53-5.67s-1.7-4.65-4.97-5.38l-2.63-.55c-1.06-.22-1.74-.91-1.74-1.85,0-1.09,1.03-2.03,2.48-2.03,2.31,0,3.05,1.63,3.19,2.65l3.48-1.02c-.28-1.74-1.84-4.94-6.67-4.94-3.59,0-6.35,2.61-6.35,5.7,0,2.43,1.6,4.47,4.65,5.16l2.56.58c1.38.29,2.02,1.02,2.02,1.96,0,1.09-.89,2.03-2.59,2.03-2.2,0-3.37-1.42-3.51-3.01l-3.58,1.02Z"/>
      </g>
    </g>
  </g>
</svg>